<svg xmlns="http://www.w3.org/2000/svg" xmlns:xlink="http://www.w3.org/1999/xlink" width="40" zoomAndPan="magnify" viewBox="0 0 30 30.000001" height="40" preserveAspectRatio="xMidYMid meet" version="1.2"><defs><clipPath id="80fcbe426c"><path d="M 0.484375 0 L 29.515625 0 L 29.515625 29.03125 L 0.484375 29.03125 Z M 0.484375 0 "/></clipPath><clipPath id="df49c6f2f2"><path d="M 5 5 L 29.515625 5 L 29.515625 20 L 5 20 Z M 5 5 "/></clipPath><clipPath id="97414ce681"><path d="M 0.484375 0.851562 L 29 0.851562 L 29 24 L 0.484375 24 Z M 0.484375 0.851562 "/></clipPath><clipPath id="ed207c7c8e"><path d="M 23 23 L 28 23 L 28 28.433594 L 23 28.433594 Z M 23 23 "/></clipPath><clipPath id="023447ce3a"><path d="M 8 23 L 13 23 L 13 28.433594 L 8 28.433594 Z M 8 23 "/></clipPath></defs><g id="3734be915a"><g clip-rule="nonzero" clip-path="url(#80fcbe426c)"><path style=" stroke:none;fill-rule:nonzero;fill:#ffffff;fill-opacity:1;" d="M 0.484375 0 L 29.515625 0 L 29.515625 29.03125 L 0.484375 29.03125 Z M 0.484375 0 "/><path style=" stroke:none;fill-rule:nonzero;fill:#ffffff;fill-opacity:1;" d="M 0.484375 0 L 29.515625 0 L 29.515625 29.03125 L 0.484375 29.03125 Z M 0.484375 0 "/></g><g clip-rule="nonzero" clip-path="url(#df49c6f2f2)"><path style=" stroke:none;fill-rule:nonzero;fill:#000000;fill-opacity:1;" d="M 17.421875 5.9375 C 20.976562 5.9375 24.535156 5.9375 28.089844 5.9375 C 28.398438 5.9375 28.691406 5.953125 28.964844 6.121094 C 29.304688 6.332031 29.515625 6.765625 29.449219 7.15625 C 29.203125 8.554688 28.949219 9.953125 28.707031 11.355469 C 28.402344 13.09375 28.097656 14.832031 27.796875 16.570312 C 27.773438 16.710938 27.734375 16.847656 27.703125 16.988281 C 27.558594 17.574219 27.246094 17.863281 26.65625 17.910156 C 25.511719 18.003906 24.367188 18.082031 23.222656 18.179688 C 22 18.28125 20.777344 18.398438 19.554688 18.507812 C 19.03125 18.554688 18.507812 18.597656 17.988281 18.636719 C 16.738281 18.730469 15.496094 18.816406 14.25 18.914062 C 12.703125 19.035156 11.15625 19.15625 9.613281 19.285156 C 9.230469 19.316406 8.851562 19.378906 8.46875 19.386719 C 7.925781 19.394531 7.546875 19.09375 7.433594 18.546875 C 7.257812 17.675781 7.109375 16.792969 6.953125 15.914062 C 6.597656 13.9375 6.242188 11.960938 5.886719 9.984375 C 5.722656 9.085938 5.5625 8.1875 5.402344 7.289062 C 5.273438 6.546875 5.753906 5.96875 6.511719 5.945312 C 6.835938 5.933594 7.160156 5.941406 7.480469 5.941406 Z M 13.027344 11.066406 L 12 11.066406 C 11.980469 11.066406 11.957031 11.066406 11.9375 11.066406 C 11.429688 11.0625 11.375 11 11.417969 11.582031 C 11.46875 12.269531 11.515625 12.960938 11.574219 13.644531 C 11.597656 13.945312 11.664062 13.996094 11.953125 13.980469 C 12.433594 13.945312 12.917969 13.914062 13.398438 13.878906 C 13.714844 13.855469 14.035156 13.816406 14.355469 13.796875 C 14.5625 13.785156 14.710938 13.75 14.625 13.480469 C 14.589844 13.367188 14.613281 13.238281 14.609375 13.113281 C 14.601562 12.527344 14.585938 11.933594 14.585938 11.34375 C 14.585938 11.132812 14.496094 11.058594 14.296875 11.0625 C 13.875 11.070312 13.449219 11.066406 13.027344 11.066406 Z M 17.535156 7.277344 C 17.050781 7.277344 16.570312 7.285156 16.085938 7.277344 C 15.882812 7.273438 15.789062 7.34375 15.800781 7.558594 C 15.835938 8.246094 15.867188 8.933594 15.898438 9.625 C 15.90625 9.773438 15.988281 9.832031 16.132812 9.832031 C 16.375 9.832031 16.617188 9.832031 16.855469 9.832031 C 17.523438 9.832031 18.1875 9.832031 18.847656 9.832031 C 19.039062 9.832031 19.171875 9.769531 19.175781 9.566406 C 19.191406 8.875 19.199219 8.183594 19.207031 7.492188 C 19.207031 7.347656 19.132812 7.273438 18.984375 7.277344 C 18.5 7.28125 18.019531 7.277344 17.535156 7.277344 Z M 22.355469 7.277344 C 21.875 7.277344 21.390625 7.28125 20.90625 7.277344 C 20.691406 7.277344 20.554688 7.34375 20.550781 7.582031 C 20.539062 8.253906 20.53125 8.925781 20.519531 9.59375 C 20.515625 9.78125 20.613281 9.835938 20.78125 9.835938 C 21.707031 9.832031 22.632812 9.835938 23.558594 9.835938 C 23.695312 9.835938 23.792969 9.785156 23.804688 9.632812 C 23.855469 8.945312 23.902344 8.257812 23.957031 7.570312 C 23.972656 7.367188 23.894531 7.273438 23.683594 7.277344 C 23.242188 7.285156 22.800781 7.277344 22.355469 7.277344 Z M 12.804688 7.277344 C 12.320312 7.277344 11.839844 7.273438 11.355469 7.28125 C 11.066406 7.285156 11.046875 7.296875 11.066406 7.601562 C 11.101562 8.25 11.164062 8.894531 11.210938 9.542969 C 11.226562 9.78125 11.367188 9.835938 11.578125 9.835938 C 12.445312 9.832031 13.3125 9.828125 14.175781 9.839844 C 14.410156 9.839844 14.503906 9.765625 14.5 9.527344 C 14.484375 8.875 14.46875 8.222656 14.472656 7.574219 C 14.472656 7.316406 14.34375 7.273438 14.136719 7.277344 C 13.691406 7.28125 13.25 7.277344 12.804688 7.277344 Z M 17.554688 11.066406 C 17.109375 11.066406 16.667969 11.070312 16.222656 11.0625 C 16.035156 11.0625 15.914062 11.097656 15.925781 11.328125 C 15.960938 12.058594 15.988281 12.789062 16.023438 13.519531 C 16.027344 13.664062 16.097656 13.742188 16.25 13.734375 C 16.972656 13.691406 17.699219 13.65625 18.421875 13.609375 C 18.5625 13.601562 18.699219 13.558594 18.835938 13.546875 C 19.019531 13.53125 19.066406 13.421875 19.066406 13.253906 C 19.070312 12.625 19.074219 11.992188 19.097656 11.359375 C 19.105469 11.101562 18.980469 11.058594 18.765625 11.0625 C 18.363281 11.070312 17.957031 11.0625 17.554688 11.066406 Z M 22.09375 11.066406 C 21.628906 11.066406 21.164062 11.066406 20.699219 11.066406 C 20.535156 11.066406 20.429688 11.105469 20.429688 11.300781 C 20.425781 11.953125 20.410156 12.601562 20.402344 13.257812 C 20.398438 13.441406 20.484375 13.5 20.664062 13.488281 C 21.289062 13.445312 21.910156 13.417969 22.53125 13.378906 C 22.773438 13.363281 23.011719 13.316406 23.25 13.300781 C 23.402344 13.289062 23.460938 13.203125 23.484375 13.070312 C 23.507812 12.910156 23.535156 12.75 23.550781 12.589844 C 23.589844 12.1875 23.613281 11.78125 23.652344 11.378906 C 23.679688 11.113281 23.65625 11.074219 23.363281 11.066406 C 22.941406 11.058594 22.515625 11.0625 22.09375 11.0625 Z M 8.773438 11.066406 C 8.488281 11.066406 8.207031 11.0625 7.925781 11.066406 C 7.511719 11.074219 7.488281 11.078125 7.546875 11.472656 C 7.664062 12.277344 7.804688 13.078125 7.945312 13.875 C 7.96875 14.019531 8.039062 14.148438 8.222656 14.144531 C 8.785156 14.125 9.351562 14.117188 9.914062 14.074219 C 10.210938 14.050781 10.246094 13.992188 10.230469 13.675781 C 10.1875 12.964844 10.125 12.257812 10.070312 11.546875 C 10.066406 11.488281 10.027344 11.429688 10.023438 11.371094 C 10.011719 11.152344 9.917969 11.042969 9.679688 11.058594 C 9.378906 11.078125 9.074219 11.0625 8.773438 11.0625 Z M 14.734375 16.320312 L 14.703125 16.320312 C 14.703125 15.976562 14.707031 15.628906 14.703125 15.28125 C 14.699219 15.074219 14.59375 15 14.386719 15.03125 C 14.148438 15.0625 13.90625 15.074219 13.667969 15.09375 C 13.125 15.128906 12.582031 15.171875 12.039062 15.199219 C 11.824219 15.207031 11.761719 15.308594 11.777344 15.507812 C 11.832031 16.175781 11.878906 16.84375 11.929688 17.511719 C 11.945312 17.722656 12.097656 17.710938 12.242188 17.703125 C 12.984375 17.652344 13.726562 17.597656 14.472656 17.554688 C 14.6875 17.542969 14.742188 17.433594 14.738281 17.242188 C 14.730469 16.933594 14.734375 16.625 14.734375 16.320312 Z M 8.234375 7.277344 C 7.851562 7.277344 7.46875 7.285156 7.085938 7.277344 C 6.871094 7.273438 6.796875 7.359375 6.832031 7.570312 C 6.953125 8.226562 7.078125 8.878906 7.1875 9.535156 C 7.226562 9.765625 7.34375 9.835938 7.558594 9.835938 C 8.242188 9.832031 8.925781 9.828125 9.605469 9.835938 C 9.828125 9.839844 9.882812 9.730469 9.867188 9.535156 C 9.816406 8.890625 9.765625 8.242188 9.71875 7.597656 C 9.703125 7.375 9.605469 7.273438 9.378906 7.277344 C 8.996094 7.285156 8.613281 7.277344 8.234375 7.277344 Z M 18.972656 16.046875 C 18.972656 15.667969 18.976562 15.320312 18.972656 14.972656 C 18.972656 14.832031 18.910156 14.773438 18.742188 14.785156 C 18.179688 14.828125 17.617188 14.84375 17.054688 14.878906 C 16.792969 14.894531 16.535156 14.941406 16.273438 14.960938 C 16.085938 14.96875 16.039062 15.066406 16.042969 15.234375 C 16.058594 15.804688 16.058594 16.378906 16.074219 16.949219 C 16.074219 17.050781 16.085938 17.160156 16.132812 17.242188 C 16.175781 17.3125 16.277344 17.390625 16.347656 17.386719 C 16.851562 17.363281 17.355469 17.332031 17.855469 17.28125 C 18.210938 17.242188 18.5625 17.164062 18.914062 17.105469 C 18.933594 16.742188 18.953125 16.378906 18.972656 16.046875 Z M 20.304688 15.910156 L 20.289062 15.910156 C 20.289062 16.175781 20.285156 16.441406 20.289062 16.707031 C 20.292969 17.058594 20.296875 17.074219 20.613281 17.050781 C 21.394531 16.984375 22.175781 16.902344 22.957031 16.832031 C 23.089844 16.820312 23.179688 16.773438 23.191406 16.617188 C 23.234375 16.050781 23.289062 15.484375 23.320312 14.917969 C 23.34375 14.554688 23.292969 14.527344 22.957031 14.558594 C 22.757812 14.578125 22.554688 14.59375 22.355469 14.601562 C 21.933594 14.617188 21.507812 14.605469 21.085938 14.644531 C 20.316406 14.714844 20.316406 14.722656 20.304688 15.484375 C 20.304688 15.625 20.304688 15.765625 20.304688 15.910156 Z M 26.730469 7.277344 C 26.40625 7.277344 26.082031 7.273438 25.761719 7.277344 C 25.40625 7.285156 25.378906 7.285156 25.335938 7.628906 C 25.253906 8.273438 25.210938 8.921875 25.148438 9.566406 C 25.128906 9.742188 25.195312 9.832031 25.378906 9.832031 C 26.027344 9.828125 26.671875 9.828125 27.316406 9.835938 C 27.539062 9.835938 27.644531 9.746094 27.679688 9.523438 C 27.789062 8.863281 27.910156 8.207031 28.03125 7.546875 C 28.0625 7.371094 28.011719 7.277344 27.820312 7.277344 C 27.457031 7.28125 27.089844 7.277344 26.730469 7.277344 Z M 10.574219 17.480469 C 10.527344 16.894531 10.484375 16.304688 10.4375 15.71875 C 10.429688 15.636719 10.386719 15.5625 10.378906 15.480469 C 10.359375 15.300781 10.269531 15.242188 10.09375 15.257812 C 9.59375 15.296875 9.089844 15.324219 8.585938 15.359375 C 8.273438 15.378906 8.234375 15.417969 8.285156 15.726562 C 8.398438 16.40625 8.527344 17.085938 8.648438 17.765625 C 8.675781 17.933594 8.761719 18.023438 8.933594 18.007812 C 9.355469 17.976562 9.777344 17.941406 10.199219 17.910156 C 10.59375 17.878906 10.59375 17.878906 10.574219 17.484375 Z M 26.234375 11.0625 C 25.910156 11.0625 25.589844 11.066406 25.265625 11.0625 C 25.085938 11.0625 25.019531 11.144531 25.007812 11.320312 C 24.964844 11.863281 24.910156 12.410156 24.863281 12.957031 C 24.84375 13.195312 24.894531 13.253906 25.113281 13.234375 C 25.433594 13.210938 25.753906 13.175781 26.074219 13.15625 C 26.316406 13.140625 26.5625 13.15625 26.800781 13.121094 C 26.898438 13.105469 27.039062 13.003906 27.058594 12.921875 C 27.167969 12.40625 27.246094 11.882812 27.332031 11.363281 C 27.367188 11.160156 27.300781 11.054688 27.082031 11.0625 C 26.800781 11.070312 26.519531 11.0625 26.234375 11.0625 Z M 24.9375 16.695312 C 25.371094 16.652344 25.773438 16.609375 26.171875 16.578125 C 26.335938 16.5625 26.4375 16.492188 26.464844 16.324219 C 26.566406 15.726562 26.667969 15.125 26.761719 14.523438 C 26.769531 14.476562 26.691406 14.371094 26.65625 14.371094 C 26.054688 14.398438 25.453125 14.433594 24.851562 14.480469 C 24.699219 14.488281 24.679688 14.621094 24.671875 14.75 C 24.632812 15.238281 24.585938 15.722656 24.546875 16.207031 C 24.539062 16.308594 24.515625 16.417969 24.546875 16.511719 C 24.574219 16.585938 24.65625 16.65625 24.734375 16.6875 C 24.800781 16.71875 24.890625 16.695312 24.9375 16.695312 Z M 24.9375 16.695312 "/></g><g clip-rule="nonzero" clip-path="url(#97414ce681)"><path style=" stroke:none;fill-rule:nonzero;fill:#000000;fill-opacity:1;" d="M 17.910156 23.320312 C 14.816406 23.320312 11.722656 23.316406 8.628906 23.328125 C 8.007812 23.328125 7.492188 23.144531 7.058594 22.6875 C 6.457031 22.046875 6.410156 21.027344 6.839844 20.242188 C 6.996094 19.957031 7.171875 19.683594 7.3125 19.390625 C 7.378906 19.246094 7.402344 19.09375 7.382812 18.933594 C 6.96875 16.59375 6.542969 14.257812 6.132812 11.917969 C 5.75 9.757812 5.382812 7.597656 5.007812 5.4375 C 4.882812 4.714844 4.75 3.996094 4.636719 3.273438 C 4.589844 3 4.46875 2.855469 4.179688 2.808594 C 3.386719 2.675781 2.597656 2.515625 1.804688 2.371094 C 1.570312 2.324219 1.328125 2.292969 1.09375 2.242188 C 0.71875 2.15625 0.484375 1.84375 0.523438 1.492188 C 0.566406 1.128906 0.898438 0.855469 1.304688 0.90625 C 1.804688 0.96875 2.296875 1.070312 2.792969 1.160156 C 3.664062 1.320312 4.535156 1.488281 5.40625 1.640625 C 5.617188 1.675781 5.71875 1.761719 5.753906 1.980469 C 5.851562 2.582031 5.972656 3.179688 6.082031 3.777344 C 6.402344 5.558594 6.726562 7.335938 7.035156 9.113281 C 7.421875 11.335938 7.796875 13.558594 8.179688 15.78125 C 8.367188 16.859375 8.570312 17.9375 8.769531 19.011719 C 8.820312 19.296875 8.8125 19.550781 8.640625 19.8125 C 8.402344 20.164062 8.246094 20.570312 8.015625 20.929688 C 7.738281 21.355469 7.988281 22.027344 8.632812 21.96875 C 8.769531 21.957031 8.914062 21.96875 9.054688 21.96875 L 27.128906 21.96875 C 27.289062 21.96875 27.453125 21.957031 27.613281 21.980469 C 27.789062 22.003906 27.9375 22.089844 28.046875 22.234375 C 28.160156 22.378906 28.203125 22.542969 28.183594 22.722656 C 28.152344 23.089844 27.9375 23.296875 27.550781 23.320312 C 27.390625 23.328125 27.226562 23.320312 27.066406 23.320312 Z M 17.910156 23.320312 "/></g><g clip-rule="nonzero" clip-path="url(#ed207c7c8e)"><path style=" stroke:none;fill-rule:nonzero;fill:#000000;fill-opacity:1;" d="M 23.199219 26.160156 C 23.117188 25.109375 24.117188 23.878906 25.402344 23.902344 C 26.625 23.921875 27.640625 24.789062 27.660156 26.105469 C 27.675781 27.347656 26.828125 28.402344 25.425781 28.402344 C 23.972656 28.402344 23.152344 27.175781 23.199219 26.160156 Z M 25.445312 25.128906 C 24.84375 25.128906 24.398438 25.566406 24.410156 26.160156 C 24.417969 26.726562 24.898438 27.191406 25.472656 27.191406 C 25.945312 27.191406 26.46875 26.632812 26.464844 26.132812 C 26.457031 25.597656 25.984375 25.128906 25.445312 25.128906 Z M 25.445312 25.128906 "/></g><g clip-rule="nonzero" clip-path="url(#023447ce3a)"><path style=" stroke:none;fill-rule:nonzero;fill:#000000;fill-opacity:1;" d="M 12.914062 26.164062 C 12.910156 27.394531 11.917969 28.425781 10.75 28.421875 C 9.472656 28.414062 8.527344 27.417969 8.492188 26.125 C 8.457031 24.925781 9.53125 23.882812 10.722656 23.890625 C 11.867188 23.902344 13.019531 24.960938 12.914062 26.164062 Z M 11.703125 26.222656 C 11.730469 25.632812 11.347656 25.164062 10.8125 25.128906 C 10.203125 25.09375 9.746094 25.492188 9.710938 26.070312 C 9.671875 26.667969 10.066406 27.136719 10.667969 27.171875 C 10.796875 27.179688 10.925781 27.164062 11.050781 27.117188 C 11.175781 27.074219 11.289062 27.007812 11.386719 26.917969 C 11.484375 26.828125 11.558594 26.722656 11.613281 26.601562 C 11.671875 26.480469 11.699219 26.355469 11.703125 26.222656 Z M 11.703125 26.222656 "/></g></g></svg>