<svg xmlns="http://www.w3.org/2000/svg" xmlns:xlink="http://www.w3.org/1999/xlink" width="60" zoomAndPan="magnify" viewBox="0 0 45 44.999999" height="60" preserveAspectRatio="xMidYMid meet" version="1.2"><defs><clipPath id="94b5b1e9dd"><path d="M 25 15 L 42.75 15 L 42.75 32 L 25 32 Z M 25 15 "/></clipPath><clipPath id="e6c1d381b6"><path d="M 30 26 L 40 26 L 40 34.679688 L 30 34.679688 Z M 30 26 "/></clipPath><clipPath id="8dc07b3ec6"><path d="M 12 26 L 21 26 L 21 34.679688 L 12 34.679688 Z M 12 26 "/></clipPath><clipPath id="f99285d941"><path d="M 2.25 24 L 15 24 L 15 27 L 2.25 27 Z M 2.25 24 "/></clipPath><clipPath id="9f60678401"><path d="M 9 10.679688 L 31 10.679688 L 31 32 L 9 32 Z M 9 10.679688 "/></clipPath></defs><g id="4b1c0d2e90"><path style=" stroke:none;fill-rule:nonzero;fill:#000000;fill-opacity:1;" d="M 13.21875 31.25 L 9.84375 31.25 C 9.378906 31.25 9 30.863281 9 30.390625 C 9 29.917969 9.378906 29.535156 9.84375 29.535156 L 13.21875 29.535156 C 13.683594 29.535156 14.0625 29.917969 14.0625 30.390625 C 14.0625 30.863281 13.683594 31.25 13.21875 31.25 Z M 13.21875 31.25 "/><g clip-rule="nonzero" clip-path="url(#94b5b1e9dd)"><path style=" stroke:none;fill-rule:nonzero;fill:#000000;fill-opacity:1;" d="M 40.640625 31.25 L 38.53125 31.25 C 38.066406 31.25 37.6875 30.863281 37.6875 30.390625 C 37.6875 29.917969 38.066406 29.535156 38.53125 29.535156 L 39.941406 29.535156 L 41.078125 23.378906 C 41.0625 20.230469 38.414062 17.542969 35.15625 17.542969 L 29.617188 17.542969 L 26.929688 29.535156 L 31.78125 29.535156 C 32.246094 29.535156 32.625 29.917969 32.625 30.390625 C 32.625 30.863281 32.246094 31.25 31.78125 31.25 L 25.875 31.25 C 25.617188 31.25 25.375 31.128906 25.214844 30.925781 C 25.054688 30.722656 24.992188 30.457031 25.050781 30.203125 L 28.121094 16.496094 C 28.207031 16.101562 28.546875 15.828125 28.941406 15.828125 L 35.15625 15.828125 C 39.34375 15.828125 42.75 19.285156 42.75 23.539062 L 41.46875 30.550781 C 41.394531 30.957031 41.046875 31.25 40.640625 31.25 Z M 40.640625 31.25 "/></g><g clip-rule="nonzero" clip-path="url(#e6c1d381b6)"><path style=" stroke:none;fill-rule:nonzero;fill:#000000;fill-opacity:1;" d="M 35.15625 34.675781 C 32.832031 34.675781 30.9375 32.753906 30.9375 30.390625 C 30.9375 28.027344 32.832031 26.109375 35.15625 26.109375 C 37.480469 26.109375 39.375 28.027344 39.375 30.390625 C 39.375 32.753906 37.480469 34.675781 35.15625 34.675781 Z M 35.15625 27.820312 C 33.761719 27.820312 32.625 28.976562 32.625 30.390625 C 32.625 31.808594 33.761719 32.960938 35.15625 32.960938 C 36.550781 32.960938 37.6875 31.808594 37.6875 30.390625 C 37.6875 28.976562 36.550781 27.820312 35.15625 27.820312 Z M 35.15625 27.820312 "/></g><g clip-rule="nonzero" clip-path="url(#8dc07b3ec6)"><path style=" stroke:none;fill-rule:nonzero;fill:#000000;fill-opacity:1;" d="M 16.59375 34.675781 C 14.269531 34.675781 12.375 32.753906 12.375 30.390625 C 12.375 28.027344 14.269531 26.109375 16.59375 26.109375 C 18.917969 26.109375 20.8125 28.027344 20.8125 30.390625 C 20.8125 32.753906 18.917969 34.675781 16.59375 34.675781 Z M 16.59375 27.820312 C 15.199219 27.820312 14.0625 28.976562 14.0625 30.390625 C 14.0625 31.808594 15.199219 32.960938 16.59375 32.960938 C 17.988281 32.960938 19.125 31.808594 19.125 30.390625 C 19.125 28.976562 17.988281 27.820312 16.59375 27.820312 Z M 16.59375 27.820312 "/></g><path style=" stroke:none;fill-rule:nonzero;fill:#000000;fill-opacity:1;" d="M 13.21875 15.828125 L 6.46875 15.828125 C 6.003906 15.828125 5.625 15.445312 5.625 14.972656 C 5.625 14.496094 6.003906 14.113281 6.46875 14.113281 L 13.21875 14.113281 C 13.683594 14.113281 14.0625 14.496094 14.0625 14.972656 C 14.0625 15.445312 13.683594 15.828125 13.21875 15.828125 Z M 13.21875 15.828125 "/><path style=" stroke:none;fill-rule:nonzero;fill:#000000;fill-opacity:1;" d="M 13.21875 20.96875 L 4.78125 20.96875 C 4.316406 20.96875 3.9375 20.585938 3.9375 20.109375 C 3.9375 19.636719 4.316406 19.253906 4.78125 19.253906 L 13.21875 19.253906 C 13.683594 19.253906 14.0625 19.636719 14.0625 20.109375 C 14.0625 20.585938 13.683594 20.96875 13.21875 20.96875 Z M 13.21875 20.96875 "/><g clip-rule="nonzero" clip-path="url(#f99285d941)"><path style=" stroke:none;fill-rule:nonzero;fill:#000000;fill-opacity:1;" d="M 13.21875 26.109375 L 3.09375 26.109375 C 2.628906 26.109375 2.25 25.722656 2.25 25.25 C 2.25 24.777344 2.628906 24.394531 3.09375 24.394531 L 13.21875 24.394531 C 13.683594 24.394531 14.0625 24.777344 14.0625 25.25 C 14.0625 25.722656 13.683594 26.109375 13.21875 26.109375 Z M 13.21875 26.109375 "/></g><g clip-rule="nonzero" clip-path="url(#9f60678401)"><path style=" stroke:none;fill-rule:nonzero;fill:#000000;fill-opacity:1;" d="M 25.875 31.25 L 19.96875 31.25 C 19.503906 31.25 19.125 30.863281 19.125 30.390625 C 19.125 29.917969 19.503906 29.535156 19.96875 29.535156 L 25.203125 29.535156 L 29.035156 12.402344 L 9.84375 12.402344 C 9.378906 12.402344 9 12.015625 9 11.542969 C 9 11.070312 9.378906 10.6875 9.84375 10.6875 L 30.09375 10.6875 C 30.351562 10.6875 30.59375 10.804688 30.753906 11.007812 C 30.914062 11.210938 30.976562 11.480469 30.917969 11.734375 L 26.699219 30.582031 C 26.609375 30.972656 26.269531 31.25 25.875 31.25 Z M 25.875 31.25 "/></g></g></svg>