<svg xmlns="http://www.w3.org/2000/svg" xmlns:xlink="http://www.w3.org/1999/xlink" width="60" zoomAndPan="magnify" viewBox="0 0 45 44.999999" height="60" preserveAspectRatio="xMidYMid meet" version="1.2"><defs><clipPath id="0c9cc12761"><path d="M 7 29 L 42.75 29 L 42.75 42.75 L 7 42.75 Z M 7 29 "/></clipPath><clipPath id="bb08d52314"><path d="M 2.25 2.25 L 42.75 2.25 L 42.75 26 L 2.25 26 Z M 2.25 2.25 "/></clipPath></defs><g id="9debc1c473"><g clip-rule="nonzero" clip-path="url(#0c9cc12761)"><path style=" stroke:none;fill-rule:nonzero;fill:#000000;fill-opacity:1;" d="M 36 31.433594 L 34.28125 30.402344 C 33.746094 30.085938 33.167969 29.925781 32.546875 29.925781 L 29.960938 29.925781 C 29.425781 29.925781 28.90625 29.992188 28.390625 30.128906 L 20.59375 32.21875 C 20.167969 32.335938 19.792969 32.546875 19.46875 32.847656 C 19.144531 33.148438 18.910156 33.507812 18.757812 33.921875 L 11.902344 30.210938 C 11.328125 29.886719 10.714844 29.785156 10.066406 29.910156 C 9.828125 29.953125 9.601562 30.027344 9.382812 30.132812 C 8.886719 30.371094 8.5 30.734375 8.226562 31.214844 C 7.988281 31.628906 7.867188 32.078125 7.867188 32.558594 C 7.863281 33.039062 7.980469 33.488281 8.21875 33.902344 C 8.460938 34.320312 8.785156 34.652344 9.203125 34.890625 L 21.492188 42.246094 C 22.035156 42.582031 22.628906 42.75 23.269531 42.75 L 32.777344 42.75 C 33.207031 42.75 33.621094 42.671875 34.019531 42.515625 L 36 41.730469 L 36 42.75 L 42.75 42.75 L 42.75 29.25 L 36 29.25 Z M 33.523438 41.257812 C 33.285156 41.351562 33.039062 41.398438 32.78125 41.398438 L 23.269531 41.398438 C 22.878906 41.398438 22.523438 41.296875 22.191406 41.089844 L 9.886719 33.730469 C 9.4375 33.46875 9.210938 33.078125 9.214844 32.558594 C 9.21875 32.316406 9.277344 32.089844 9.398438 31.882812 C 9.535156 31.644531 9.726562 31.464844 9.976562 31.347656 C 10.085938 31.292969 10.195312 31.257812 10.3125 31.238281 C 10.398438 31.222656 10.484375 31.214844 10.574219 31.214844 C 10.808594 31.214844 11.03125 31.273438 11.234375 31.390625 L 18.667969 35.40625 C 18.679688 35.449219 18.679688 35.488281 18.6875 35.53125 C 18.765625 35.816406 18.886719 36.082031 19.054688 36.328125 C 19.21875 36.574219 19.421875 36.789062 19.65625 36.96875 C 19.890625 37.152344 20.148438 37.289062 20.429688 37.382812 C 20.710938 37.480469 21 37.527344 21.296875 37.527344 C 21.675781 37.492188 22.046875 37.425781 22.410156 37.328125 L 29.425781 35.453125 L 29.074219 34.148438 L 22.085938 36.015625 C 21.777344 36.085938 21.378906 36.167969 21.296875 36.175781 C 20.992188 36.175781 20.71875 36.082031 20.476562 35.898438 C 20.234375 35.714844 20.074219 35.476562 19.992188 35.179688 C 19.972656 35.097656 19.960938 35.015625 19.953125 34.929688 C 19.953125 34.929688 19.949219 34.769531 19.953125 34.710938 C 19.980469 34.429688 20.085938 34.179688 20.265625 33.960938 C 20.445312 33.742188 20.675781 33.597656 20.949219 33.519531 L 28.738281 31.4375 C 29.140625 31.328125 29.546875 31.273438 29.960938 31.273438 L 32.546875 31.273438 C 32.921875 31.273438 33.265625 31.371094 33.585938 31.5625 L 36 33.007812 L 36 40.28125 Z M 37.351562 30.601562 L 41.398438 30.601562 L 41.398438 41.398438 L 37.351562 41.398438 Z M 37.351562 30.601562 "/></g><g clip-rule="nonzero" clip-path="url(#bb08d52314)"><path style=" stroke:none;fill-rule:nonzero;fill:#000000;fill-opacity:1;" d="M 30.089844 7.648438 L 26.46875 4.03125 C 25.902344 3.457031 25.242188 3.019531 24.5 2.710938 C 23.753906 2.402344 22.980469 2.246094 22.171875 2.25 L 13.6875 2.25 C 13.15625 2.25 12.652344 2.371094 12.179688 2.605469 L 10.664062 3.363281 C 10.355469 3.519531 10.03125 3.589844 9.6875 3.574219 L 9 3.550781 L 9 2.25 L 2.25 2.25 L 2.25 17.101562 L 9 17.101562 L 9 15.074219 L 10.148438 15.074219 L 10.554688 15.34375 C 11.722656 16.117188 13.003906 16.53125 14.398438 16.582031 L 14.398438 25.199219 L 42.75 25.199219 L 42.75 7.648438 Z M 7.648438 15.75 L 3.601562 15.75 L 3.601562 3.601562 L 7.648438 3.601562 Z M 11.304688 14.222656 L 10.550781 13.726562 L 9 13.726562 L 9 4.902344 L 9.636719 4.925781 C 10.210938 4.945312 10.753906 4.828125 11.269531 4.570312 L 12.78125 3.8125 C 13.066406 3.671875 13.367188 3.601562 13.6875 3.601562 L 22.171875 3.601562 C 22.800781 3.597656 23.402344 3.71875 23.984375 3.957031 C 24.5625 4.195312 25.074219 4.539062 25.515625 4.984375 L 28.179688 7.648438 L 22.609375 7.648438 L 20.972656 6.011719 L 20.019531 6.964844 L 24.785156 11.734375 C 24.914062 11.859375 25.011719 12.007812 25.082031 12.171875 C 25.148438 12.339844 25.183594 12.511719 25.183594 12.691406 C 25.183594 12.871094 25.152344 13.042969 25.082031 13.210938 C 25.015625 13.375 24.917969 13.523438 24.789062 13.648438 C 24.664062 13.777344 24.519531 13.875 24.351562 13.945312 C 24.1875 14.011719 24.011719 14.046875 23.835938 14.046875 C 23.65625 14.046875 23.480469 14.015625 23.316406 13.945312 C 23.148438 13.878906 23.003906 13.78125 22.875 13.652344 L 18.894531 9.671875 L 18.421875 10.074219 C 18.105469 10.34375 17.753906 10.550781 17.363281 10.695312 C 16.976562 10.84375 16.574219 10.917969 16.160156 10.925781 C 15.742188 10.929688 15.339844 10.867188 14.945312 10.734375 C 14.554688 10.597656 14.195312 10.402344 13.871094 10.144531 L 13.480469 9.824219 L 12.628906 10.875 L 13.023438 11.195312 C 13.441406 11.527344 13.898438 11.785156 14.398438 11.96875 L 14.398438 15.230469 C 13.273438 15.179688 12.242188 14.84375 11.304688 14.222656 Z M 20.90625 13.589844 L 21.921875 14.609375 C 22.175781 14.859375 22.46875 15.050781 22.800781 15.1875 C 23.128906 15.324219 23.472656 15.390625 23.828125 15.390625 C 24.1875 15.390625 24.53125 15.324219 24.859375 15.1875 C 25.191406 15.054688 25.484375 14.863281 25.738281 14.613281 C 25.578125 14.855469 25.453125 15.117188 25.363281 15.394531 C 25.273438 15.667969 25.21875 15.953125 25.199219 16.242188 C 25.179688 16.535156 25.195312 16.820312 25.25 17.109375 C 25.304688 17.394531 25.394531 17.667969 25.519531 17.929688 C 25.644531 18.195312 25.800781 18.4375 25.988281 18.660156 C 26.175781 18.882812 26.386719 19.078125 26.625 19.246094 C 26.863281 19.417969 27.117188 19.554688 27.386719 19.65625 C 27.660156 19.761719 27.941406 19.828125 28.230469 19.859375 C 28.519531 19.894531 28.808594 19.886719 29.097656 19.847656 C 29.382812 19.804688 29.664062 19.726562 29.929688 19.613281 C 30.199219 19.503906 30.449219 19.355469 30.679688 19.179688 C 30.910156 19.003906 31.117188 18.800781 31.296875 18.570312 C 31.476562 18.34375 31.625 18.09375 31.738281 17.828125 C 31.855469 17.5625 31.9375 17.285156 31.980469 16.996094 C 32.027344 16.710938 32.035156 16.421875 32.007812 16.132812 C 31.976562 15.839844 31.914062 15.558594 31.8125 15.285156 C 31.714844 15.011719 31.578125 14.757812 31.414062 14.519531 C 31.25 14.277344 31.054688 14.066406 30.835938 13.875 C 30.613281 13.683594 30.371094 13.527344 30.109375 13.398438 C 29.851562 13.269531 29.578125 13.175781 29.292969 13.117188 C 29.007812 13.058594 28.71875 13.039062 28.429688 13.054688 C 28.136719 13.070312 27.851562 13.121094 27.574219 13.207031 C 27.296875 13.296875 27.035156 13.417969 26.789062 13.574219 C 26.542969 13.726562 26.320312 13.910156 26.121094 14.121094 C 26.351562 13.761719 26.484375 13.367188 26.523438 12.9375 C 26.5625 12.511719 26.503906 12.097656 26.34375 11.699219 L 35.382812 11.699219 C 35.453125 12.113281 35.582031 12.507812 35.777344 12.882812 C 35.96875 13.253906 36.214844 13.589844 36.511719 13.886719 C 36.808594 14.183594 37.144531 14.429688 37.519531 14.621094 C 37.890625 14.816406 38.285156 14.949219 38.699219 15.019531 L 38.699219 17.832031 C 38.285156 17.902344 37.890625 18.035156 37.519531 18.226562 C 37.144531 18.421875 36.808594 18.664062 36.511719 18.960938 C 36.214844 19.257812 35.96875 19.59375 35.777344 19.96875 C 35.582031 20.339844 35.453125 20.734375 35.382812 21.148438 L 21.769531 21.148438 C 21.699219 20.734375 21.566406 20.339844 21.371094 19.96875 C 21.179688 19.59375 20.933594 19.257812 20.636719 18.960938 C 20.339844 18.664062 20.003906 18.421875 19.632812 18.226562 C 19.257812 18.035156 18.863281 17.902344 18.449219 17.832031 L 18.449219 15.019531 C 19.449219 14.851562 20.265625 14.375 20.90625 13.589844 Z M 26.550781 16.425781 C 26.550781 16.15625 26.601562 15.898438 26.703125 15.648438 C 26.808594 15.402344 26.953125 15.183594 27.144531 14.992188 C 27.332031 14.804688 27.550781 14.65625 27.800781 14.554688 C 28.046875 14.453125 28.304688 14.398438 28.574219 14.398438 C 28.84375 14.398438 29.101562 14.453125 29.351562 14.554688 C 29.597656 14.65625 29.816406 14.804688 30.007812 14.992188 C 30.195312 15.183594 30.34375 15.402344 30.445312 15.648438 C 30.546875 15.898438 30.601562 16.15625 30.601562 16.425781 C 30.601562 16.695312 30.546875 16.953125 30.445312 17.199219 C 30.34375 17.449219 30.195312 17.667969 30.007812 17.855469 C 29.816406 18.046875 29.597656 18.191406 29.351562 18.296875 C 29.101562 18.398438 28.84375 18.449219 28.574219 18.449219 C 28.304688 18.449219 28.046875 18.398438 27.800781 18.296875 C 27.550781 18.191406 27.332031 18.046875 27.144531 17.855469 C 26.953125 17.667969 26.808594 17.449219 26.703125 17.199219 C 26.601562 16.953125 26.550781 16.695312 26.550781 16.425781 Z M 41.398438 23.851562 L 15.75 23.851562 L 15.75 12.253906 C 16.851562 12.335938 17.863281 12.078125 18.789062 11.476562 L 19.9375 12.628906 C 19.6875 12.972656 19.367188 13.242188 18.988281 13.433594 C 18.605469 13.628906 18.203125 13.722656 17.773438 13.726562 L 17.101562 13.726562 L 17.101562 19.125 L 17.773438 19.125 C 18.132812 19.125 18.476562 19.195312 18.808594 19.332031 C 19.140625 19.46875 19.429688 19.664062 19.683594 19.914062 C 19.9375 20.167969 20.132812 20.460938 20.269531 20.792969 C 20.40625 21.121094 20.476562 21.46875 20.476562 21.824219 L 20.476562 22.5 L 36.675781 22.5 L 36.675781 21.824219 C 36.675781 21.46875 36.742188 21.121094 36.878906 20.792969 C 37.015625 20.460938 37.210938 20.167969 37.464844 19.914062 C 37.71875 19.664062 38.011719 19.46875 38.339844 19.332031 C 38.671875 19.195312 39.015625 19.125 39.375 19.125 L 40.050781 19.125 L 40.050781 13.726562 L 39.375 13.726562 C 39.015625 13.726562 38.671875 13.65625 38.339844 13.519531 C 38.011719 13.382812 37.71875 13.1875 37.464844 12.933594 C 37.210938 12.679688 37.015625 12.390625 36.878906 12.058594 C 36.742188 11.726562 36.675781 11.382812 36.675781 11.023438 L 36.675781 10.351562 L 25.3125 10.351562 L 23.960938 9 L 41.398438 9 Z M 41.398438 23.851562 "/></g></g></svg>