<svg xmlns="http://www.w3.org/2000/svg" xmlns:xlink="http://www.w3.org/1999/xlink" width="60" zoomAndPan="magnify" viewBox="0 0 45 44.999999" height="60" preserveAspectRatio="xMidYMid meet" version="1.2"><defs><clipPath id="9069e0d476"><path d="M 6 4.5 L 40 4.5 L 40 40.5 L 6 40.5 Z M 6 4.5 "/></clipPath></defs><g id="5abfa8af26"><rect x="0" width="45" y="0" height="44.999999" style="fill:#ffffff;fill-opacity:1;stroke:none;"/><rect x="0" width="45" y="0" height="44.999999" style="fill:#ffffff;fill-opacity:1;stroke:none;"/><g clip-rule="nonzero" clip-path="url(#9069e0d476)"><path style=" stroke:none;fill-rule:nonzero;fill:#000000;fill-opacity:1;" d="M 22.835938 40.5 C 22.761719 40.5 22.6875 40.5 22.613281 40.5 C 19.761719 39.75 15.707031 37.949219 12.253906 34.125 C 4.601562 25.648438 6.402344 14.023438 6.851562 11.773438 C 6.851562 11.550781 7.078125 11.324219 7.300781 11.25 C 9.628906 10.351562 11.878906 9.449219 14.132812 8.476562 C 16.984375 7.273438 19.761719 5.925781 22.460938 4.648438 C 22.6875 4.5 22.988281 4.5 23.210938 4.648438 C 25.914062 6 28.765625 7.273438 31.617188 8.550781 C 33.792969 9.523438 36.121094 10.425781 38.449219 11.324219 C 38.671875 11.398438 38.898438 11.625 38.898438 11.851562 C 39.347656 14.101562 41.148438 25.726562 33.417969 34.199219 C 29.96875 38.023438 25.914062 39.75 23.0625 40.5 C 22.988281 40.5 22.914062 40.5 22.835938 40.5 Z M 8.203125 12.449219 C 7.828125 14.925781 6.550781 25.5 13.382812 33.148438 C 16.535156 36.601562 20.210938 38.25 22.835938 39 C 25.464844 38.25 29.140625 36.601562 32.292969 33.148438 C 39.121094 25.5 37.847656 14.925781 37.472656 12.449219 C 35.296875 11.625 33.117188 10.726562 31.019531 9.824219 C 28.242188 8.625 25.539062 7.351562 22.914062 6.074219 C 20.285156 7.351562 17.507812 8.625 14.808594 9.824219 C 12.632812 10.726562 10.453125 11.625 8.203125 12.449219 Z M 8.203125 12.449219 "/></g><path style=" stroke:none;fill-rule:nonzero;fill:#000000;fill-opacity:1;" d="M 22.835938 30 C 18.710938 30 15.332031 26.625 15.332031 22.5 C 15.332031 18.375 18.710938 15 22.835938 15 C 23.289062 15 23.589844 15.300781 23.589844 15.75 C 23.589844 16.199219 23.289062 16.5 22.835938 16.5 C 19.535156 16.5 16.832031 19.199219 16.832031 22.5 C 16.832031 25.800781 19.535156 28.5 22.835938 28.5 C 26.140625 28.5 28.839844 25.800781 28.839844 22.5 C 28.839844 22.050781 29.140625 21.75 29.589844 21.75 C 30.042969 21.75 30.34375 22.050781 30.34375 22.5 C 30.34375 26.625 26.964844 30 22.835938 30 Z M 22.835938 30 "/><path style=" stroke:none;fill-rule:nonzero;fill:#000000;fill-opacity:1;" d="M 23.589844 24.75 C 23.363281 24.75 23.210938 24.675781 23.0625 24.523438 L 20.0625 21.523438 C 19.761719 21.226562 19.761719 20.773438 20.0625 20.476562 C 20.359375 20.175781 20.8125 20.175781 21.113281 20.476562 L 23.511719 22.875 L 28.992188 16.050781 C 29.214844 15.75 29.742188 15.675781 30.042969 15.898438 C 30.34375 16.125 30.417969 16.648438 30.191406 16.949219 L 24.1875 24.449219 C 24.039062 24.601562 23.8125 24.75 23.589844 24.75 Z M 23.589844 24.75 "/></g></svg>