<svg xmlns="http://www.w3.org/2000/svg" xmlns:xlink="http://www.w3.org/1999/xlink" width="60" zoomAndPan="magnify" viewBox="0 0 45 44.999999" height="60" preserveAspectRatio="xMidYMid meet" version="1.2"><defs><clipPath id="8ed5e7f4ff"><path d="M 3.3125 2.25 L 41.5625 2.25 L 41.5625 42.75 L 3.3125 42.75 Z M 3.3125 2.25 "/></clipPath></defs><g id="7f76617496"><g clip-rule="nonzero" clip-path="url(#8ed5e7f4ff)"><path style=" stroke:none;fill-rule:nonzero;fill:#000000;fill-opacity:1;" d="M 3.617188 2.582031 L 3.617188 37.5 C 3.617188 37.695312 3.773438 37.851562 3.96875 37.851562 L 30.675781 37.851562 C 30.871094 37.851562 31.027344 37.695312 31.027344 37.5 L 31.027344 34.898438 L 32.234375 36.105469 C 31.832031 36.679688 31.878906 37.46875 32.394531 37.980469 L 36.664062 42.269531 C 36.941406 42.546875 37.304688 42.699219 37.699219 42.699219 C 38.089844 42.699219 38.453125 42.546875 38.730469 42.269531 L 40.765625 40.226562 C 41.335938 39.660156 41.335938 38.726562 40.765625 38.164062 L 36.488281 33.871094 C 35.980469 33.363281 35.183594 33.308594 34.613281 33.71875 L 32.351562 31.441406 C 34.289062 28.402344 33.945312 24.300781 31.296875 21.644531 C 31.210938 21.558594 31.121094 21.480469 31.027344 21.40625 L 31.027344 2.582031 C 31.027344 2.382812 30.871094 2.230469 30.675781 2.230469 L 3.96875 2.230469 C 3.773438 2.230469 3.617188 2.382812 3.617188 2.582031 Z M 34.101562 34.199219 L 32.71875 35.589844 L 30.546875 33.414062 C 30.808594 33.214844 31.054688 33.003906 31.296875 32.769531 C 31.527344 32.53125 31.738281 32.28125 31.9375 32.027344 Z M 30.796875 22.140625 C 33.578125 24.929688 33.578125 29.476562 30.796875 32.269531 C 28.011719 35.058594 23.480469 35.058594 20.699219 32.269531 C 19.351562 30.917969 18.613281 29.117188 18.613281 27.207031 C 18.613281 25.300781 19.351562 23.496094 20.699219 22.140625 C 22.09375 20.746094 23.917969 20.046875 25.75 20.046875 C 27.582031 20.046875 29.398438 20.746094 30.796875 22.140625 Z M 4.320312 2.9375 L 30.324219 2.9375 L 30.324219 20.824219 C 27.257812 18.613281 22.953125 18.882812 20.203125 21.644531 C 18.71875 23.128906 17.90625 25.109375 17.90625 27.207031 C 17.90625 29.304688 18.71875 31.285156 20.203125 32.769531 C 21.734375 34.304688 23.742188 35.066406 25.75 35.066406 C 27.214844 35.066406 28.6875 34.65625 29.972656 33.832031 L 30.324219 34.191406 L 30.324219 37.144531 L 4.320312 37.144531 Z M 4.320312 2.9375 "/></g><path style=" stroke:none;fill-rule:nonzero;fill:#000000;fill-opacity:1;" d="M 22.15625 23.601562 C 22.019531 23.742188 22.019531 23.964844 22.15625 24.101562 C 22.292969 24.242188 22.515625 24.242188 22.652344 24.101562 C 24.359375 22.390625 27.132812 22.390625 28.839844 24.101562 C 28.910156 24.171875 29 24.207031 29.089844 24.207031 C 29.179688 24.207031 29.269531 24.171875 29.339844 24.101562 C 29.476562 23.964844 29.476562 23.742188 29.339844 23.601562 C 27.359375 21.617188 24.136719 21.617188 22.15625 23.601562 Z M 22.15625 23.601562 "/><path style=" stroke:none;fill-rule:nonzero;fill:#000000;fill-opacity:1;" d="M 13.136719 4.992188 L 12.398438 5.734375 L 12.398438 5.28125 C 12.398438 5.085938 12.242188 4.929688 12.042969 4.929688 L 7.335938 4.929688 C 7.140625 4.929688 6.984375 5.085938 6.984375 5.28125 L 6.984375 10.003906 C 6.984375 10.195312 7.140625 10.355469 7.335938 10.355469 L 12.042969 10.355469 C 12.242188 10.355469 12.398438 10.195312 12.398438 10.003906 L 12.398438 6.730469 L 13.636719 5.496094 C 13.769531 5.351562 13.769531 5.125 13.636719 4.992188 C 13.496094 4.851562 13.277344 4.851562 13.136719 4.992188 Z M 11.691406 6.441406 L 10.183594 7.953125 L 9.289062 7.054688 C 9.148438 6.921875 8.921875 6.921875 8.789062 7.054688 C 8.648438 7.199219 8.648438 7.421875 8.789062 7.558594 L 9.929688 8.703125 C 10 8.773438 10.09375 8.808594 10.183594 8.808594 C 10.269531 8.808594 10.359375 8.773438 10.429688 8.703125 L 11.691406 7.4375 L 11.691406 9.648438 L 7.691406 9.648438 L 7.691406 5.636719 L 11.691406 5.636719 Z M 11.691406 6.441406 "/><path style=" stroke:none;fill-rule:nonzero;fill:#000000;fill-opacity:1;" d="M 15.238281 6.609375 L 27.304688 6.609375 C 27.5 6.609375 27.65625 6.453125 27.65625 6.257812 C 27.65625 6.0625 27.5 5.902344 27.304688 5.902344 L 15.238281 5.902344 C 15.046875 5.902344 14.886719 6.0625 14.886719 6.257812 C 14.886719 6.453125 15.046875 6.609375 15.238281 6.609375 Z M 15.238281 6.609375 "/><path style=" stroke:none;fill-rule:nonzero;fill:#000000;fill-opacity:1;" d="M 15.238281 9.339844 L 24.171875 9.339844 C 24.363281 9.339844 24.523438 9.183594 24.523438 8.988281 C 24.523438 8.792969 24.363281 8.632812 24.171875 8.632812 L 15.238281 8.632812 C 15.046875 8.632812 14.886719 8.792969 14.886719 8.988281 C 14.886719 9.183594 15.046875 9.339844 15.238281 9.339844 Z M 15.238281 9.339844 "/><path style=" stroke:none;fill-rule:nonzero;fill:#000000;fill-opacity:1;" d="M 13.136719 13.269531 L 12.398438 14.019531 L 12.398438 13.558594 C 12.398438 13.359375 12.242188 13.207031 12.042969 13.207031 L 7.335938 13.207031 C 7.140625 13.207031 6.984375 13.359375 6.984375 13.558594 L 6.984375 18.28125 C 6.984375 18.476562 7.140625 18.632812 7.335938 18.632812 L 12.042969 18.632812 C 12.242188 18.632812 12.398438 18.476562 12.398438 18.28125 L 12.398438 15.015625 L 13.636719 13.769531 C 13.769531 13.636719 13.769531 13.410156 13.636719 13.269531 C 13.496094 13.136719 13.277344 13.136719 13.136719 13.269531 Z M 11.691406 14.726562 L 10.183594 16.238281 L 9.289062 15.339844 C 9.148438 15.199219 8.921875 15.199219 8.789062 15.339844 C 8.648438 15.472656 8.648438 15.699219 8.789062 15.84375 L 9.929688 16.988281 C 10 17.058594 10.09375 17.09375 10.183594 17.09375 C 10.269531 17.09375 10.359375 17.058594 10.429688 16.988281 L 11.691406 15.722656 L 11.691406 17.925781 L 7.691406 17.925781 L 7.691406 13.914062 L 11.691406 13.914062 Z M 11.691406 14.726562 "/><path style=" stroke:none;fill-rule:nonzero;fill:#000000;fill-opacity:1;" d="M 15.238281 14.890625 L 27.304688 14.890625 C 27.5 14.890625 27.65625 14.730469 27.65625 14.539062 C 27.65625 14.34375 27.5 14.183594 27.304688 14.183594 L 15.238281 14.183594 C 15.046875 14.183594 14.886719 14.34375 14.886719 14.539062 C 14.886719 14.730469 15.046875 14.890625 15.238281 14.890625 Z M 15.238281 14.890625 "/><path style=" stroke:none;fill-rule:nonzero;fill:#000000;fill-opacity:1;" d="M 24.523438 17.265625 C 24.523438 17.074219 24.363281 16.914062 24.171875 16.914062 L 15.238281 16.914062 C 15.046875 16.914062 14.886719 17.074219 14.886719 17.265625 C 14.886719 17.460938 15.046875 17.621094 15.238281 17.621094 L 24.171875 17.621094 C 24.363281 17.621094 24.523438 17.460938 24.523438 17.265625 Z M 24.523438 17.265625 "/><path style=" stroke:none;fill-rule:nonzero;fill:#000000;fill-opacity:1;" d="M 13.136719 21.554688 L 12.398438 22.296875 L 12.398438 21.84375 C 12.398438 21.644531 12.242188 21.488281 12.042969 21.488281 L 7.335938 21.488281 C 7.140625 21.488281 6.984375 21.644531 6.984375 21.84375 L 6.984375 26.5625 C 6.984375 26.761719 7.140625 26.917969 7.335938 26.917969 L 12.042969 26.917969 C 12.242188 26.917969 12.398438 26.761719 12.398438 26.5625 L 12.398438 23.296875 L 13.636719 22.054688 C 13.769531 21.914062 13.769531 21.695312 13.636719 21.554688 C 13.496094 21.410156 13.277344 21.410156 13.136719 21.554688 Z M 11.691406 23 L 10.183594 24.515625 L 9.289062 23.617188 C 9.148438 23.484375 8.921875 23.484375 8.789062 23.617188 C 8.648438 23.757812 8.648438 23.984375 8.789062 24.117188 L 9.929688 25.261719 C 10 25.335938 10.09375 25.371094 10.183594 25.371094 C 10.269531 25.371094 10.359375 25.335938 10.429688 25.261719 L 11.691406 24.003906 L 11.691406 26.210938 L 7.691406 26.210938 L 7.691406 22.195312 L 11.691406 22.195312 Z M 11.691406 23 "/><path style=" stroke:none;fill-rule:nonzero;fill:#000000;fill-opacity:1;" d="M 13.136719 29.835938 L 12.398438 30.578125 L 12.398438 30.121094 C 12.398438 29.929688 12.242188 29.765625 12.042969 29.765625 L 7.335938 29.765625 C 7.140625 29.765625 6.984375 29.929688 6.984375 30.121094 L 6.984375 34.839844 C 6.984375 35.039062 7.140625 35.195312 7.335938 35.195312 L 12.042969 35.195312 C 12.242188 35.195312 12.398438 35.039062 12.398438 34.839844 L 12.398438 31.574219 L 13.636719 30.332031 C 13.769531 30.195312 13.769531 29.972656 13.636719 29.835938 C 13.496094 29.695312 13.277344 29.695312 13.136719 29.835938 Z M 11.691406 31.285156 L 10.183594 32.796875 L 9.289062 31.902344 C 9.148438 31.765625 8.921875 31.765625 8.789062 31.902344 C 8.648438 32.042969 8.648438 32.261719 8.789062 32.402344 L 9.929688 33.546875 C 10 33.617188 10.09375 33.652344 10.183594 33.652344 C 10.269531 33.652344 10.359375 33.617188 10.429688 33.546875 L 11.691406 32.28125 L 11.691406 34.488281 L 7.691406 34.488281 L 7.691406 30.472656 L 11.691406 30.472656 Z M 11.691406 31.285156 "/></g></svg>