<svg xmlns="http://www.w3.org/2000/svg" xmlns:xlink="http://www.w3.org/1999/xlink" width="40" zoomAndPan="magnify" viewBox="0 0 30 30.000001" height="40" preserveAspectRatio="xMidYMid meet" version="1.2"><defs><clipPath id="f104743274"><path d="M 0.484375 0 L 29.515625 0 L 29.515625 29.03125 L 0.484375 29.03125 Z M 0.484375 0 "/></clipPath><clipPath id="665638290f"><path d="M 2.804688 0 L 27.484375 0 L 27.484375 29.03125 L 2.804688 29.03125 Z M 2.804688 0 "/></clipPath></defs><g id="dd17a286f8"><g clip-rule="nonzero" clip-path="url(#f104743274)"><path style=" stroke:none;fill-rule:nonzero;fill:#ffffff;fill-opacity:1;" d="M 0.484375 0 L 29.515625 0 L 29.515625 29.03125 L 0.484375 29.03125 Z M 0.484375 0 "/><path style=" stroke:none;fill-rule:nonzero;fill:#ffffff;fill-opacity:1;" d="M 0.484375 0 L 29.515625 0 L 29.515625 29.03125 L 0.484375 29.03125 Z M 0.484375 0 "/></g><g clip-rule="nonzero" clip-path="url(#665638290f)"><path style=" stroke:none;fill-rule:nonzero;fill:#000000;fill-opacity:1;" d="M 15.296875 16.679688 C 15.296875 16.359375 15.039062 16.101562 14.71875 16.101562 C 10.585938 16.101562 7.085938 19.027344 6.394531 23.0625 C 6.34375 23.375 6.554688 23.675781 6.871094 23.730469 C 6.902344 23.734375 6.9375 23.738281 6.96875 23.738281 C 7.246094 23.738281 7.492188 23.539062 7.539062 23.257812 C 8.132812 19.78125 11.152344 17.261719 14.71875 17.261719 C 15.039062 17.261719 15.296875 17.003906 15.296875 16.679688 Z M 26.964844 24.402344 C 23.679688 27.375 19.425781 29.011719 14.996094 29.011719 C 10.566406 29.011719 6.316406 27.375 3.027344 24.402344 C 2.878906 24.273438 2.808594 24.074219 2.84375 23.875 C 3.847656 17.933594 8.960938 13.621094 14.996094 13.621094 C 18.289062 13.621094 21.382812 14.90625 23.710938 17.234375 C 25.53125 19.054688 26.722656 21.351562 27.148438 23.875 C 27.183594 24.074219 27.113281 24.269531 26.964844 24.402344 Z M 8.78125 6.234375 C 8.78125 2.808594 11.570312 0.0195312 14.996094 0.0195312 C 18.421875 0.0195312 21.210938 2.808594 21.210938 6.234375 C 21.210938 9.664062 18.421875 12.449219 14.996094 12.449219 C 11.570312 12.449219 8.78125 9.664062 8.78125 6.234375 "/></g></g></svg>