<svg xmlns="http://www.w3.org/2000/svg" xmlns:xlink="http://www.w3.org/1999/xlink" width="40" zoomAndPan="magnify" viewBox="0 0 30 30.000001" height="40" preserveAspectRatio="xMidYMid meet" version="1.2"><defs><clipPath id="cfdaf3587d"><path d="M 0.484375 0 L 29.515625 0 L 29.515625 29.03125 L 0.484375 29.03125 Z M 0.484375 0 "/></clipPath><clipPath id="10f0d4a401"><path d="M 1.777344 1.351562 L 28.574219 1.351562 L 28.574219 27.738281 L 1.777344 27.738281 Z M 1.777344 1.351562 "/></clipPath><clipPath id="9440017c9e"><path d="M 7.296875 0.582031 L 23.265625 0.582031 L 23.265625 28.160156 L 7.296875 28.160156 Z M 7.296875 0.582031 "/></clipPath></defs><g id="fae8731a1e"><g clip-rule="nonzero" clip-path="url(#cfdaf3587d)"><path style=" stroke:none;fill-rule:nonzero;fill:#ffffff;fill-opacity:1;" d="M 0.484375 0 L 29.515625 0 L 29.515625 29.03125 L 0.484375 29.03125 Z M 0.484375 0 "/><path style=" stroke:none;fill-rule:nonzero;fill:#ffffff;fill-opacity:1;" d="M 0.484375 0 L 29.515625 0 L 29.515625 29.03125 L 0.484375 29.03125 Z M 0.484375 0 "/></g><g clip-rule="nonzero" clip-path="url(#10f0d4a401)"><path style=" stroke:none;fill-rule:nonzero;fill:#100f0d;fill-opacity:1;" d="M 15.050781 23.945312 C 9.777344 23.878906 5.503906 19.667969 5.503906 14.5 C 5.503906 11.070312 7.40625 7.917969 10.46875 6.246094 L 8.699219 3.039062 C 4.429688 5.347656 1.777344 9.730469 1.777344 14.5 C 1.777344 21.675781 7.71875 27.519531 15.046875 27.585938 C 15.117188 27.585938 15.175781 27.53125 15.175781 27.464844 L 15.175781 24.0625 C 15.175781 23.996094 15.121094 23.945312 15.050781 23.945312 Z M 21.9375 25.796875 L 20.167969 22.589844 C 23.0625 20.882812 24.84375 17.820312 24.84375 14.5 C 24.84375 9.332031 20.570312 5.121094 15.296875 5.054688 C 15.230469 5.054688 15.175781 5.003906 15.175781 4.9375 L 15.175781 1.535156 C 15.175781 1.46875 15.230469 1.410156 15.300781 1.414062 C 22.628906 1.480469 28.570312 7.324219 28.570312 14.5 C 28.570312 19.160156 26.039062 23.453125 21.9375 25.796875 "/></g><g clip-rule="nonzero" clip-path="url(#9440017c9e)"><path style=" stroke:none;fill-rule:nonzero;fill:#100f0d;fill-opacity:1;" d="M 11.785156 8.628906 L 13.378906 2.597656 L 7.34375 0.582031 L 8.699219 3.039062 L 10.46875 6.246094 Z M 20.167969 22.589844 L 21.9375 25.796875 L 23.242188 28.160156 L 17.207031 26.148438 L 18.800781 20.117188 L 20.167969 22.589844 "/></g></g></svg>